<svg id="visual" viewBox="0 0 960 540" width="960" height="540" xmlns="http://www.w3.org/2000/svg" xmlns:xlink="http://www.w3.org/1999/xlink" version="1.1"><rect x="0" y="0" width="960" height="540" fill="#e8e8e8"></rect><defs><linearGradient id="grad1_0" x1="43.8%" y1="100%" x2="100%" y2="0%"><stop offset="14.444444444444446%" stop-color="#e8e8e8" stop-opacity="1"></stop><stop offset="85.55555555555554%" stop-color="#e8e8e8" stop-opacity="1"></stop></linearGradient></defs><defs><linearGradient id="grad2_0" x1="0%" y1="100%" x2="56.3%" y2="0%"><stop offset="14.444444444444446%" stop-color="#e8e8e8" stop-opacity="1"></stop><stop offset="85.55555555555554%" stop-color="#e8e8e8" stop-opacity="1"></stop></linearGradient></defs><g transform="translate(960, 540)"><path d="M-243 0C-221.3 -25.7 -199.6 -51.3 -186.6 -77.3C-173.7 -103.3 -169.6 -129.6 -156.3 -156.3C-143 -182.9 -120.6 -210 -93 -224.5C-65.4 -239 -32.7 -241 0 -243L0 0Z" fill="#FBAE3C"></path></g><g transform="translate(0, 0)"><path d="M243 0C242 34 240.9 68 224.5 93C208.1 118 176.3 133.9 151.3 151.3C126.4 168.8 108.3 187.7 84.2 203.3C60.1 218.8 30.1 230.9 0 243L0 0Z" fill="#FBAE3C"></path></g></svg>