<svg id="visual" viewBox="0 0 960 540" width="960" height="540" xmlns="http://www.w3.org/2000/svg" xmlns:xlink="http://www.w3.org/1999/xlink" version="1.1"><rect x="0" y="0" width="960" height="540" fill="#09151e"></rect><defs><linearGradient id="grad1_0" x1="43.8%" y1="100%" x2="100%" y2="0%"><stop offset="14.444444444444446%" stop-color="#09151e" stop-opacity="1"></stop><stop offset="85.55555555555554%" stop-color="#09151e" stop-opacity="1"></stop></linearGradient></defs><defs><linearGradient id="grad2_0" x1="0%" y1="100%" x2="56.3%" y2="0%"><stop offset="14.444444444444446%" stop-color="#09151e" stop-opacity="1"></stop><stop offset="85.55555555555554%" stop-color="#09151e" stop-opacity="1"></stop></linearGradient></defs><g transform="translate(960, 540)"><path d="M-351 0C-345 -45.3 -339 -90.5 -323.4 -133.9C-307.7 -177.4 -282.4 -218.9 -248.2 -248.2C-214 -277.5 -171 -294.4 -128.2 -309.5C-85.4 -324.6 -42.7 -337.8 0 -351L0 0Z" fill="#FBAE3C"></path></g><g transform="translate(0, 0)"><path d="M351 0C323.7 37.6 296.3 75.1 280.9 116.3C265.4 157.5 261.7 202.3 239.7 239.7C217.7 277.1 177.3 307 134.3 324.3C91.3 341.6 45.7 346.3 0 351L0 0Z" fill="#FBAE3C"></path></g></svg>