<svg id="visual" viewBox="0 0 600 900" width="600" height="900" xmlns="http://www.w3.org/2000/svg" xmlns:xlink="http://www.w3.org/1999/xlink" version="1.1"><rect x="0" y="0" width="600" height="900" fill="#f5f5f5"></rect><defs><linearGradient id="grad1_0" x1="0%" y1="0%" x2="100%" y2="100%"><stop offset="30%" stop-color="#f5f5f5" stop-opacity="1"></stop><stop offset="70%" stop-color="#f5f5f5" stop-opacity="1"></stop></linearGradient></defs><defs><linearGradient id="grad2_0" x1="0%" y1="0%" x2="100%" y2="100%"><stop offset="30%" stop-color="#f5f5f5" stop-opacity="1"></stop><stop offset="70%" stop-color="#f5f5f5" stop-opacity="1"></stop></linearGradient></defs><g transform="translate(600, 0)"><path d="M0 459.7C-35.3 397.9 -70.6 336.1 -134.3 324.3C-198.1 312.5 -290.3 350.7 -325.1 325.1C-359.9 299.4 -337.3 209.9 -350.2 145C-363 80.2 -411.4 40.1 -459.7 0L0 0Z" fill="#FBAE3C"></path></g><g transform="translate(0, 900)"><path d="M0 -459.7C49.4 -431.2 98.8 -402.7 160 -386.2C221.1 -369.7 294.1 -365.1 325.1 -325.1C356 -285 344.9 -209.3 360.3 -149.2C375.7 -89.1 417.7 -44.6 459.7 0L0 0Z" fill="#FBAE3C"></path></g></svg>