<svg id="visual" viewBox="0 0 900 600" width="900" height="600" xmlns="http://www.w3.org/2000/svg" xmlns:xlink="http://www.w3.org/1999/xlink" version="1.1"><rect x="0" y="0" width="900" height="600" fill="#f5f5f5"></rect><path d="M0 483L30 477.2C60 471.3 120 459.7 180 448.5C240 437.3 300 426.7 360 426.8C420 427 480 438 540 448.3C600 458.7 660 468.3 720 454.7C780 441 840 404 870 385.5L900 367L900 601L870 601C840 601 780 601 720 601C660 601 600 601 540 601C480 601 420 601 360 601C300 601 240 601 180 601C120 601 60 601 30 601L0 601Z" fill="#FBAE3C" stroke-linecap="round" stroke-linejoin="miter"></path></svg>